<svg xmlns="http://www.w3.org/2000/svg" viewBox="0 0 128 128">
  <rect width="128" height="128" rx="26" fill="#F5F5F5"/>
  <g transform="translate(20,16) scale(0.69)">
    <polygon fill="#E2761B" stroke="#E2761B" stroke-linecap="round" stroke-linejoin="round" points="113.6,7.8 67.4,41.4 75.8,21.5"/>
    <polygon fill="#E4761B" stroke="#E4761B" stroke-linecap="round" stroke-linejoin="round" points="14.4,7.8 60.1,41.7 52.2,21.5"/>
    <polygon fill="#E4761B" stroke="#E4761B" stroke-linecap="round" stroke-linejoin="round" points="97.2,87.8 85.1,106.4 110.9,113.5 118.2,88.2"/>
    <polygon fill="#E4761B" stroke="#E4761B" stroke-linecap="round" stroke-linejoin="round" points="9.8,88.2 17.1,113.5 42.9,106.4 30.8,87.8"/>
    <polygon fill="#E4761B" stroke="#E4761B" stroke-linecap="round" stroke-linejoin="round" points="41.1,56.7 34,67.2 59.6,68.4 58.8,41 "/>
    <polygon fill="#E4761B" stroke="#E4761B" stroke-linecap="round" stroke-linejoin="round" points="86.9,56.7 69,40.7 68.4,68.4 94,67.2"/>
    <polygon fill="#E4761B" stroke="#E4761B" stroke-linecap="round" stroke-linejoin="round" points="42.9,106.4 58,99.1 44.7,88.4"/>
    <polygon fill="#E4761B" stroke="#E4761B" stroke-linecap="round" stroke-linejoin="round" points="70,99.1 85.1,106.4 83.3,88.4"/>
    <polygon fill="#D7C1B3" stroke="#D7C1B3" stroke-linecap="round" stroke-linejoin="round" points="85.1,106.4 70,99.1 71.2,108.2 71.1,113.2"/>
    <polygon fill="#D7C1B3" stroke="#D7C1B3" stroke-linecap="round" stroke-linejoin="round" points="42.9,106.4 56.9,113.2 56.8,108.2 58,99.1"/>
    <polygon fill="#233447" stroke="#233447" stroke-linecap="round" stroke-linejoin="round" points="57.2,80.4 44.3,76.7 53.3,72.6"/>
    <polygon fill="#233447" stroke="#233447" stroke-linecap="round" stroke-linejoin="round" points="70.8,80.4 74.7,72.6 83.7,76.7"/>
    <polygon fill="#CD6116" stroke="#CD6116" stroke-linecap="round" stroke-linejoin="round" points="42.9,106.4 44.8,87.8 30.8,88.2"/>
    <polygon fill="#CD6116" stroke="#CD6116" stroke-linecap="round" stroke-linejoin="round" points="83.2,87.8 85.1,106.4 97.2,88.2"/>
    <polygon fill="#CD6116" stroke="#CD6116" stroke-linecap="round" stroke-linejoin="round" points="94,67.2 68.4,68.4 70.8,80.4 74.7,72.6 83.7,76.7"/>
    <polygon fill="#CD6116" stroke="#CD6116" stroke-linecap="round" stroke-linejoin="round" points="44.3,76.7 53.3,72.6 57.2,80.4 59.6,68.4 34,67.2"/>
    <polygon fill="#E4751F" stroke="#E4751F" stroke-linecap="round" stroke-linejoin="round" points="34,67.2 44.7,88.4 44.3,76.7"/>
    <polygon fill="#E4751F" stroke="#E4751F" stroke-linecap="round" stroke-linejoin="round" points="83.7,76.7 83.3,88.4 94,67.2"/>
    <polygon fill="#E4751F" stroke="#E4751F" stroke-linecap="round" stroke-linejoin="round" points="59.6,68.4 57.2,80.4 60.2,95.6 60.9,75.5"/>
    <polygon fill="#E4751F" stroke="#E4751F" stroke-linecap="round" stroke-linejoin="round" points="68.4,68.4 67.1,75.4 67.8,95.6 70.8,80.4"/>
    <polygon fill="#F6851B" stroke="#F6851B" stroke-linecap="round" stroke-linejoin="round" points="70.8,80.4 67.8,95.6 70,99.1 83.3,88.4 83.7,76.7"/>
    <polygon fill="#F6851B" stroke="#F6851B" stroke-linecap="round" stroke-linejoin="round" points="44.3,76.7 44.7,88.4 58,99.1 60.2,95.6 57.2,80.4"/>
    <polygon fill="#C0AD9E" stroke="#C0AD9E" stroke-linecap="round" stroke-linejoin="round" points="71.1,113.2 71.2,108.2 70.1,107.3 57.9,107.3 56.8,108.2 56.9,113.2 42.9,106.4 47.8,110.5 57.8,117.5 70.2,117.5 80.2,110.5 85.1,106.4"/>
    <polygon fill="#161616" stroke="#161616" stroke-linecap="round" stroke-linejoin="round" points="70,99.1 67.8,95.6 60.2,95.6 58,99.1 56.8,108.2 57.9,107.3 70.1,107.3 71.2,108.2"/>
    <polygon fill="#763D16" stroke="#763D16" stroke-linecap="round" stroke-linejoin="round" points="115.6,44 119.4,25.5 113.6,7.8 70,33.8 86.9,56.7 110.4,63.6 115.8,57.4 113.4,55.6 117.2,52.1 114.2,49.8 118,46.9"/>
    <polygon fill="#763D16" stroke="#763D16" stroke-linecap="round" stroke-linejoin="round" points="8.6,25.5 12.4,44 10,46.9 13.8,49.8 10.8,52.1 14.6,55.6 12.2,57.4 17.6,63.6 41.1,56.7 58,33.8 14.4,7.8"/>
    <polygon fill="#F6851B" stroke="#F6851B" stroke-linecap="round" stroke-linejoin="round" points="110.4,63.6 86.9,56.7 94,67.2 83.3,88.4 97.2,88.2 118.2,88.2"/>
    <polygon fill="#F6851B" stroke="#F6851B" stroke-linecap="round" stroke-linejoin="round" points="41.1,56.7 17.6,63.6 9.8,88.2 30.8,88.2 44.7,88.4 34,67.2"/>
    <polygon fill="#F6851B" stroke="#F6851B" stroke-linecap="round" stroke-linejoin="round" points="68.4,68.4 70,33.8 75.8,21.5 52.2,21.5 58,33.8 59.6,68.4 60.2,75.5 60.2,95.6 67.8,95.6 67.8,75.4 68.4,68.4"/>
  </g>
</svg>