<svg xmlns="http://www.w3.org/2000/svg" viewBox="0 0 128 128" fill="none">
  <rect width="128" height="128" rx="26" fill="url(#pg)"/>
  <defs>
    <linearGradient id="pg" x1="0" y1="0" x2="128" y2="128">
      <stop stop-color="#534BB1"/>
      <stop offset="1" stop-color="#551BF9"/>
    </linearGradient>
  </defs>
  <path d="M97.6 59.8C97.6 40.3 81.6 24.3 62.1 24.3H30.7c-1.6 0-2.9 1.3-2.9 2.9v62.2c0 2 2.1 3.3 3.9 2.4 4.3-2.3 10.7-7.5 22.1-7.5 16.5 0 22.4 12 38 12 4.5 0 8-1.2 10.5-3.2V59.8z" fill="white" fill-opacity="0.15"/>
  <path d="M19 27.2c0-1.6 1.3-2.9 2.9-2.9h40.2c19.5 0 35.5 16 35.5 35.5v33.3c0 5-4 9-9 9h-6.2c-1.6 0-3-.7-4-1.9-5.7-6.8-13.5-9.9-22.6-9.9-9.6 0-17.5 5-23 11.3-.9 1-2.1 1.5-3.4 1.5H21.8c-1.5 0-2.8-1.2-2.8-2.7V27.2z" fill="white"/>
  <circle cx="46" cy="59" r="5.5" fill="#534BB1"/>
  <circle cx="67" cy="59" r="5.5" fill="#534BB1"/>
</svg>